<svg width="150px" height="150px" viewBox="-3 0 150 150" fill="none" xmlns="http://www.w3.org/2000/svg">
<path d="M130.248 102.181H130.254C130.242 102.25 130.218 102.313 130.206 102.381C129.204 107.075 127.644 111.625 125.262 115.006V115.044C125.19 115.144 125.1 115.244 125.028 115.344C124.89 115.531 124.77 115.744 124.626 115.919L124.608 115.888C119.646 122.513 111.552 129.938 98.58 133.988C93.126 135.681 84.804 136.794 75.654 136.794C67.944 136.794 59.64 136.006 51.948 134.125C35.754 130.175 24 117.138 24 103.125C24 79.45 43.872 70.8937 59.832 64.0187C76.092 57.0125 83.784 52.7062 84 43.5187C84.09 39.8687 83.214 37.1125 81.336 35.1C78.798 32.3875 74.85 31.4187 72 31.4187C66.144 31.4187 61.89 34.65 59.904 36.5187C59.922 36.85 60 37.1625 60 37.5C60 45.8812 54.684 52.8938 47.406 55.2938L24.084 61.9C23.574 62.0938 21.3 62.5 21 62.5C16.032 62.5 12 58.3 12 53.125C12 51.5563 12.408 50.1 13.062 48.8L13.056 48.7875L13.098 48.725C13.392 48.15 13.74 47.6125 14.142 47.1188L26.508 28.1C26.916 27.375 28.242 25.5375 28.242 25.5375C31.548 21.4187 36.45 18.75 42 18.75C44.88 18.75 47.562 19.5187 49.974 20.775C55.104 16.65 62.688 12.6687 72 12.6687C80.568 12.6687 88.662 16.0687 94.218 22C99.516 27.6625 102.204 35.2625 102 43.9875C101.46 66.3813 82.194 74.675 66.714 81.3438C49.914 88.5813 42 93.0875 42 103.125C42 107.531 47.772 113.85 56.052 115.875C69.162 119.069 85.656 118.438 93.42 116.013C110.058 110.831 114.222 97.825 114.384 97.2687L114.402 97.275C119.982 78.9375 120 56.25 120 56.25C120 52.8 122.688 50 126 50C129.312 50 132 52.8 132 56.25V81.25C132 81.25 132.396 91.95 130.248 102.181Z" fill="#388E3C"/>
<path opacity="0.4" d="M24.726 108.925C31.5 122.787 47.742 127.056 56.028 129.087C69.138 132.281 85.596 131.525 93.396 129.225C129.006 118.75 131.976 86.525 131.976 86.525C131.856 90.5875 131.46 96.425 130.254 102.181H130.26C130.248 102.25 130.224 102.312 130.212 102.381C129.21 107.075 127.65 111.625 125.268 115.006V115.044C125.196 115.144 125.106 115.244 125.034 115.344C124.896 115.531 124.776 115.744 124.632 115.919L124.614 115.887C119.652 122.512 111.558 129.937 98.586 133.987C93.132 135.681 84.81 136.794 75.66 136.794C67.95 136.794 59.646 136.006 51.954 134.125C38.022 130.731 27.432 120.6 24.726 108.925ZM66.714 81.3437C68.694 80.4937 70.746 79.5937 72.798 78.6562C73.302 78.425 73.806 78.175 74.31 77.9375C75.9 77.1937 77.478 76.4062 79.05 75.5875C89.37 70.1687 98.844 62.7375 101.328 49.85C101.328 49.85 98.748 64.325 59.802 77.225C45.192 82.0625 42 89.1937 42 103.125C42 93.0875 49.914 88.5812 66.714 81.3437ZM85.248 31.3812C80.526 24.8187 69.768 20.2062 57.498 28.1187C58.896 30.6187 59.748 33.4625 59.904 36.525C61.89 34.6562 66.144 31.425 72 31.425C74.85 31.425 78.798 32.3875 81.336 35.1C83.214 37.1125 84.09 39.8625 84 43.5125C83.91 47.225 82.458 50.1062 79.854 52.7312C79.794 52.8437 79.68 53.0312 79.632 53.125C79.632 53.125 84.696 48.8625 86.568 42.6C87.252 40.2937 87.966 35.15 85.248 31.3812Z" fill="white"/>
</svg>
