<svg width="144px" height="144px" viewBox="0 0 144 144" fill="none" xmlns="http://www.w3.org/2000/svg">
<path d="M138 132C114.168 132 97.362 124.152 84 118.818V132H72V126.024L59.856 114H42V132H30V113.532C15.774 110.67 5.994 93.378 6 66.354V41.748C6 31.026 11.388 24.534 17.748 21.108V21C17.748 16.032 21.78 12 26.748 12C30.696 12 34.008 14.556 35.226 18.09L35.748 18C39.06 18 41.748 20.688 41.748 24C41.748 27.312 39.06 30 35.748 30H29.796C27.03 30.042 18 31.02 18 41.748V60.354C17.748 78 31.83 77.952 34.308 78H53.874C67.092 78 78.858 84.138 86.532 93.702C86.586 93.768 86.652 93.816 86.706 93.882C109.128 123 138 126 138 126V132Z" fill="#2E7D32"/>
<path opacity="0.4" d="M47.874 102H42V114H59.856L47.874 102ZM84 108V118.818C97.362 124.152 114.168 132 138 132C138 132 106.668 128.334 84 108ZM7.17599 81.63C10.182 99.744 18.714 111.264 30 113.532V101.616C14.034 98.826 8.74799 87.348 7.17599 81.63Z" fill="white"/>
</svg>
