<svg width="149px" height="149px" viewBox="0 -2.5 149 149" fill="none" xmlns="http://www.w3.org/2000/svg">
<path d="M116.506 74.514C117.567 75.6 118.579 76.74 119.442 77.988L119.455 78C122.428 82.29 124.173 87.444 124.173 93C124.173 107.91 111.663 120 96.2354 120C90.4927 120 85.1597 118.314 80.7207 115.446L80.7083 115.452L80.6835 115.428C79.386 114.588 78.2064 113.604 77.0764 112.572L72.147 117.318L80.907 125.826L74.3075 132.18L58.9792 117.282L70.657 106.056L57.8617 94.098C56.62 92.898 55.5087 91.584 54.5154 90.18L40.3604 103.86V126H31.0417V100.134L50.5172 81.312C50.0081 79.284 49.6667 77.184 49.6667 75C49.6667 74.472 49.797 73.98 49.8281 73.458C49.1389 72.87 48.5119 72.24 47.9221 71.568C46.4507 71.772 44.9856 72 43.4583 72C26.3419 72 12.4167 58.542 12.4167 42H21.7292C21.7292 53.58 31.4762 63 43.4583 63C43.5639 63 43.6632 62.97 43.7687 62.97C43.6011 61.998 43.4583 61.02 43.4583 60V48.366L12.2304 18.18L18.8112 11.82L50.0454 42H62.0833C63.1387 42 64.1507 42.138 65.1564 42.3C65.1564 42.198 65.1875 42.102 65.1875 42C65.1875 30.42 55.4404 21 43.4583 21V12C60.5747 12 74.5 25.458 74.5 42C74.5 43.476 74.2641 44.892 74.0468 46.314C74.7483 46.884 75.4002 47.496 76.0024 48.156C76.5487 48.126 77.0578 48 77.6042 48C79.864 48 82.0369 48.33 84.1415 48.822L103.611 30H130.375V39H107.472L93.3175 52.68C95.4097 54.06 97.2101 55.776 98.8429 57.636L109.707 68.364L121.435 56.988L136.782 71.814L130.189 78.18L121.441 69.726L116.506 74.514Z" fill="#00897B"/>
<path opacity="0.4" d="M72.147 117.318L80.907 125.826L74.3075 132.18L58.9792 117.282L70.477 106.23L76.0086 111.546C76.3563 111.9 76.7847 112.17 77.1509 112.506L72.147 117.318ZM121.429 56.994L109.9 68.178L115.307 73.368C115.717 73.74 116.114 74.118 116.506 74.514L121.441 69.726L130.189 78.18L136.776 71.814L121.429 56.994ZM103.611 30L84.1353 48.822C87.4568 49.596 90.5672 50.88 93.305 52.686L107.46 39.006H130.375V30H103.611ZM65.1875 42C65.1875 42.102 65.1564 42.198 65.1564 42.3C68.5276 42.846 71.551 44.268 74.0468 46.314C74.2641 44.892 74.5 43.476 74.5 42C74.5 25.458 60.5747 12 43.4583 12V21C55.4404 21 65.1875 30.42 65.1875 42ZM43.7687 62.97C43.6632 62.97 43.5639 63 43.4583 63C31.4762 63 21.7292 53.58 21.7292 42H12.4167C12.4167 58.542 26.3419 72 43.4583 72C44.9856 72 46.4507 71.772 47.9221 71.562C45.8051 69.15 44.3337 66.228 43.7687 62.97ZM50.5172 81.318L31.0417 100.134V126H40.3542V103.866L54.5092 90.186C52.6467 87.534 51.3181 84.528 50.5172 81.318ZM118.958 108.606C117.145 111.066 114.922 113.214 112.371 114.972L80.7083 84.366L64.3556 100.17L57.8554 94.098C57.7934 94.038 57.7437 93.954 57.6816 93.894L97.0673 55.83C97.6695 56.418 98.2779 57.006 98.8367 57.642L103.549 62.292L87.2954 78L118.958 108.606Z" fill="black"/>
</svg>
